<?xml version="1.0" encoding="UTF-8"?>
<!--
  Pi-Clock icon sprite
  ====================
  Icons from Lucide (https://lucide.dev) — ISC Licensed.

  Usage in HTML:
      <svg class="icon" aria-hidden="true">
          <use href="/static/icons.svg#icon-name"/>
      </svg>

  All symbols share the same 24x24 viewBox and Lucide's canonical stroke
  presentation (2px, round caps/joins, currentColor). The <use> host
  element controls size and colour via CSS — see the .icon class in
  main.css. Add aria-hidden="true" on decorative instances; add
  aria-label on the parent button for icon-only controls.
-->
<svg xmlns="http://www.w3.org/2000/svg"
     fill="none"
     stroke="currentColor"
     stroke-width="2"
     stroke-linecap="round"
     stroke-linejoin="round"
     style="display:none">
    <defs>

        <symbol id="icon-book-open" viewBox="0 0 24 24">
            <path d="M12 7v14"/>
            <path d="M3 18a1 1 0 0 1-1-1V4a1 1 0 0 1 1-1h5a4 4 0 0 1 4 4 4 4 0 0 1 4-4h5a1 1 0 0 1 1 1v13a1 1 0 0 1-1 1h-6a3 3 0 0 0-3 3 3 3 0 0 0-3-3z"/>
        </symbol>

        <symbol id="icon-camera" viewBox="0 0 24 24">
            <path d="M13.997 4a2 2 0 0 1 1.76 1.05l.486.9A2 2 0 0 0 18.003 7H20a2 2 0 0 1 2 2v9a2 2 0 0 1-2 2H4a2 2 0 0 1-2-2V9a2 2 0 0 1 2-2h1.997a2 2 0 0 0 1.759-1.048l.489-.904A2 2 0 0 1 10.004 4z"/>
            <circle cx="12" cy="13" r="3"/>
        </symbol>

        <symbol id="icon-moon" viewBox="0 0 24 24">
            <path d="M20.985 12.486a9 9 0 1 1-9.473-9.472c.405-.022.617.46.402.803a6 6 0 0 0 8.268 8.268c.344-.215.825-.004.803.401"/>
        </symbol>

        <symbol id="icon-sun" viewBox="0 0 24 24">
            <circle cx="12" cy="12" r="4"/>
            <path d="M12 2v2"/>
            <path d="M12 20v2"/>
            <path d="m4.93 4.93 1.41 1.41"/>
            <path d="m17.66 17.66 1.41 1.41"/>
            <path d="M2 12h2"/>
            <path d="M20 12h2"/>
            <path d="m6.34 17.66-1.41 1.41"/>
            <path d="m19.07 4.93-1.41 1.41"/>
        </symbol>

        <symbol id="icon-log-out" viewBox="0 0 24 24">
            <path d="m16 17 5-5-5-5"/>
            <path d="M21 12H9"/>
            <path d="M9 21H5a2 2 0 0 1-2-2V5a2 2 0 0 1 2-2h4"/>
        </symbol>

        <symbol id="icon-chevron-up" viewBox="0 0 24 24">
            <path d="m18 15-6-6-6 6"/>
        </symbol>

        <symbol id="icon-settings" viewBox="0 0 24 24">
            <path d="M9.671 4.136a2.34 2.34 0 0 1 4.659 0 2.34 2.34 0 0 0 3.319 1.915 2.34 2.34 0 0 1 2.33 4.033 2.34 2.34 0 0 0 0 3.831 2.34 2.34 0 0 1-2.33 4.033 2.34 2.34 0 0 0-3.319 1.915 2.34 2.34 0 0 1-4.659 0 2.34 2.34 0 0 0-3.32-1.915 2.34 2.34 0 0 1-2.33-4.033 2.34 2.34 0 0 0 0-3.831A2.34 2.34 0 0 1 6.35 6.051a2.34 2.34 0 0 0 3.319-1.915"/>
            <circle cx="12" cy="12" r="3"/>
        </symbol>

        <symbol id="icon-heart" viewBox="0 0 24 24">
            <path d="M2 9.5a5.5 5.5 0 0 1 9.591-3.676.56.56 0 0 0 .818 0A5.49 5.49 0 0 1 22 9.5c0 2.29-1.5 4-3 5.5l-5.492 5.313a2 2 0 0 1-3 .019L5 15c-1.5-1.5-3-3.2-3-5.5"/>
        </symbol>

        <symbol id="icon-check" viewBox="0 0 24 24">
            <path d="M20 6 9 17l-5-5"/>
        </symbol>

        <symbol id="icon-x" viewBox="0 0 24 24">
            <path d="M18 6 6 18"/>
            <path d="m6 6 12 12"/>
        </symbol>

        <symbol id="icon-circle" viewBox="0 0 24 24">
            <circle cx="12" cy="12" r="10"/>
        </symbol>

        <symbol id="icon-loader" viewBox="0 0 24 24">
            <path d="M21 12a9 9 0 1 1-6.219-8.56"/>
        </symbol>

    </defs>
</svg>
